<?xml version="1.0" encoding="UTF-8" standalone="no"?>
<!DOCTYPE svg PUBLIC "-//W3C//DTD SVG 1.1//EN" "http://www.w3.org/Graphics/SVG/1.1/DTD/svg11.dtd">
<svg width="100%" height="100%" viewBox="0 0 130 130" version="1.1" xmlns="http://www.w3.org/2000/svg" xmlns:xlink="http://www.w3.org/1999/xlink" xml:space="preserve" xmlns:serif="http://www.serif.com/" style="fill-rule:evenodd;clip-rule:evenodd;stroke-linejoin:round;stroke-miterlimit:2;">
    <g transform="matrix(1,0,0,1,0,-4.471)">
        <g transform="matrix(4.166667,0,0,4.166667,0,-14.158167)">
            <path d="M27.798,29.11C29.716,26.538 30.865,23.359 30.865,19.904C30.865,11.381 23.956,4.471 15.432,4.471C6.909,4.471 0,11.38 0,19.903C0,28.426 6.909,35.336 15.433,35.336C18.875,35.336 22.043,34.195 24.61,32.29L24.564,32.345L27.711,35.591L31.08,32.345L27.798,29.11ZM15.433,31.386C9.091,31.386 3.95,26.245 3.95,19.903C3.95,13.561 9.091,8.42 15.433,8.42C21.775,8.42 26.916,13.561 26.916,19.903C26.916,26.245 21.774,31.386 15.433,31.386ZM15.433,15.386C12.938,15.386 10.916,17.408 10.916,19.903C10.916,22.398 12.938,24.42 15.433,24.42C17.928,24.42 19.95,22.398 19.95,19.903C19.95,17.408 17.927,15.386 15.433,15.386Z" style="fill:white;fill-rule:nonzero;"/>
        </g>
        <g transform="matrix(4.166667,0,0,4.166667,0,-14.158167)">
            <path d="M29.527,32.372L21.836,24.664C21.609,24.363 21.25,24.168 20.845,24.168C20.159,24.168 19.603,24.724 19.603,25.41C19.603,25.744 19.736,26.047 19.951,26.271L19.996,26.315L27.834,33.978L29.527,32.372Z" style="fill:white;fill-rule:nonzero;"/>
        </g>
    </g>
</svg>
