<?xml version="1.0" encoding="utf-8"?>
<!-- Generator: Adobe Illustrator 20.1.0, SVG Export Plug-In . SVG Version: 6.00 Build 0)  -->
<svg version="1.1" id="logos" xmlns="http://www.w3.org/2000/svg" xmlns:xlink="http://www.w3.org/1999/xlink" x="0px" y="0px"
	 viewBox="0 0 125 40" enable-background="new 0 0 125 40" xml:space="preserve">
<g>
	<g>
		<path d="M27.798,29.11c1.918-2.572,3.067-5.751,3.067-9.206c0-8.523-6.909-15.433-15.433-15.433C6.909,4.471,0,11.38,0,19.903
			c0,8.523,6.909,15.433,15.433,15.433c3.442,0,6.61-1.141,9.177-3.046l-0.046,0.055l3.147,3.246l3.369-3.246L27.798,29.11z"/>
		<g>
			<circle fill="#FFFFFF" cx="15.433" cy="19.903" r="14.258"/>
			<path d="M15.433,8.421c-6.342,0-11.483,5.141-11.483,11.483s5.141,11.483,11.483,11.483s11.483-5.141,11.483-11.483
				S21.774,8.421,15.433,8.421z M15.433,24.42c-2.495,0-4.517-2.022-4.517-4.517s2.022-4.517,4.517-4.517s4.517,2.022,4.517,4.517
				S17.927,24.42,15.433,24.42z"/>
			<circle cx="15.433" cy="19.903" r="0.98"/>
			
				<linearGradient id="SVGID_1_" gradientUnits="userSpaceOnUse" x1="4.8269" y1="-1172.4808" x2="26.0386" y2="-1172.4808" gradientTransform="matrix(1 0 0 -1 0 -1158)">
				<stop  offset="0" style="stop-color:#000000"/>
				<stop  offset="0.5108" style="stop-color:#DFDFDF"/>
				<stop  offset="0.8763" style="stop-color:#000000"/>
			</linearGradient>
			<path fill="url(#SVGID_1_)" d="M9.942,19.67c0.122-2.927,2.533-5.263,5.49-5.263s5.368,2.336,5.49,5.263h5.115
				c-0.124-5.753-4.823-10.378-10.606-10.378S4.951,13.918,4.827,19.67H9.942z"/>
			
				<linearGradient id="SVGID_2_" gradientUnits="userSpaceOnUse" x1="15.1016" y1="-1168.1337" x2="23.4181" y2="-1175.3818" gradientTransform="matrix(1 0 0 -1 0 -1158)">
				<stop  offset="0.0029" style="stop-color:#B5B5B5;stop-opacity:0"/>
				<stop  offset="0.1244" style="stop-color:#969696;stop-opacity:0.1632"/>
				<stop  offset="0.5553" style="stop-color:#2B2B2B;stop-opacity:0.7421"/>
				<stop  offset="0.7473" style="stop-color:#000000"/>
			</linearGradient>
			<path fill="url(#SVGID_2_)" d="M15.433,9.293v5.115c2.958,0.037,5.422,2.41,5.493,5.36h5.115
				C25.969,13.994,21.216,9.331,15.433,9.293z"/>
			
				<linearGradient id="SVGID_3_" gradientUnits="userSpaceOnUse" x1="66.5944" y1="-1168.1345" x2="74.9099" y2="-1175.3818" gradientTransform="matrix(-1 0 0 -1 82.3592 -1158)">
				<stop  offset="0.0029" style="stop-color:#B5B5B5;stop-opacity:0"/>
				<stop  offset="0.1244" style="stop-color:#969696;stop-opacity:0.1632"/>
				<stop  offset="0.5553" style="stop-color:#2B2B2B;stop-opacity:0.7421"/>
				<stop  offset="0.7473" style="stop-color:#000000"/>
			</linearGradient>
			<path fill="url(#SVGID_3_)" d="M15.433,9.293v5.115c-2.958,0.037-5.419,2.41-5.49,5.36H4.827
				C4.899,13.994,9.65,9.331,15.433,9.293z"/>
			
				<linearGradient id="SVGID_4_" gradientUnits="userSpaceOnUse" x1="16.7614" y1="-1191.3518" x2="24.543" y2="-1186.0513" gradientTransform="matrix(1 0 0 -1 0 -1158)">
				<stop  offset="0.0029" style="stop-color:#B5B5B5;stop-opacity:0"/>
				<stop  offset="0.0486" style="stop-color:#A8A8A8;stop-opacity:0.0514"/>
				<stop  offset="0.2682" style="stop-color:#6C6C6C;stop-opacity:0.2982"/>
				<stop  offset="0.4258" style="stop-color:#3E3E3E;stop-opacity:0.5252"/>
				<stop  offset="0.5591" style="stop-color:#1C1C1C;stop-opacity:0.725"/>
				<stop  offset="0.7208" style="stop-color:#070707;stop-opacity:0.8901"/>
				<stop  offset="0.8679" style="stop-color:#000000"/>
			</linearGradient>
			<path fill="url(#SVGID_4_)" d="M22.994,28.541c-2.02,1.77-4.665,2.845-7.562,2.845c-0.012,0-0.023-0.001-0.034-0.001v2.775
				c0.012,0,0.023,0.001,0.034,0.001c3.593,0,6.874-1.332,9.381-3.526C24.213,29.932,23.587,29.249,22.994,28.541z"/>
			<path fill="#FFFFFF" d="M29.527,32.372l-7.691-7.708c-0.227-0.301-0.586-0.496-0.991-0.496c-0.686,0-1.242,0.556-1.242,1.242
				c0,0.334,0.133,0.637,0.348,0.861l0,0l0,0c0.014,0.015,0.03,0.03,0.045,0.044l7.838,7.663L29.527,32.372z"/>
		</g>
		<g>
			<path d="M67.112,11.401c-4.749,0-8.599,3.85-8.599,8.599s3.85,8.599,8.599,8.599s8.599-3.85,8.599-8.599
				S71.861,11.401,67.112,11.401z M67.112,25.654c-3.122,0-5.654-2.531-5.654-5.654c0-3.122,2.531-5.654,5.654-5.654
				c3.122,0,5.654,2.531,5.654,5.654C72.767,23.122,70.235,25.654,67.112,25.654z"/>
			<path d="M48.108,11.401c-4.749,0-8.599,3.85-8.599,8.599s3.85,8.599,8.599,8.599c1.632,0,3.159-0.455,4.459-1.245v-3.88
				c-1.034,1.326-2.647,2.18-4.459,2.18c-3.122,0-5.654-2.531-5.654-5.654c0-3.122,2.531-5.654,5.654-5.654
				c3.122,0,5.654,2.531,5.654,5.654v6.476v9.048c0,0.813,0.659,1.472,1.472,1.472s1.472-0.659,1.472-1.472V20
				C56.707,15.251,52.858,11.401,48.108,11.401z"/>
			<path d="M86.075,28.599c4.749,0,8.599-3.85,8.599-8.599s-3.85-8.599-8.599-8.599c-1.632,0-3.159,0.455-4.459,1.245v3.88
				c1.034-1.326,2.647-2.18,4.459-2.18c3.122,0,5.654,2.531,5.654,5.654c0,3.122-2.531,5.654-5.654,5.654
				c-3.122,0-5.654-2.531-5.654-5.654v-6.476V4.476c0-0.813-0.659-1.472-1.472-1.472c-0.813,0-1.472,0.659-1.472,1.472V20
				C77.475,24.749,81.326,28.599,86.075,28.599z"/>
			<path d="M103.724,28.599c-4.813,0-7.106-4.306-7.106-6.515s0-9.211,0-9.211c0-0.813,0.659-1.472,1.473-1.472
				c0.813,0,1.472,0.659,1.472,1.472c0,0,0,7.877,0,8.878s0.264,3.904,4.265,3.904c3.334,0,4.056-2.195,4.056-3.32
				c0-1.126,0-9.461,0-9.461c0-0.813,0.659-1.472,1.473-1.472c0.813,0,1.472,0.659,1.472,1.472c0,0,0,7.585,0,9.378
				C110.83,24.043,109.163,28.599,103.724,28.599z"/>
			<path d="M123.535,28.599c0.809,0,1.465-0.656,1.465-1.465c0-0.809-0.656-1.465-1.465-1.465h-6.911l5.959-8.043
				c2.334-3.125,2.417-3.25,2.417-4.125c0-1-1-1.973-2.001-1.973c-1,0-8.703,0-8.703,0c-0.809,0-1.465,0.656-1.465,1.465
				c0,0.809,0.656,1.465,1.465,1.465h7.119c0,0-7.585,10.002-8.252,10.919c-0.667,0.916-0.292,3.222,1.5,3.222
				C116.455,28.599,123.535,28.599,123.535,28.599z"/>
		</g>
	</g>
	<rect x="0" y="0" fill="none" width="125" height="40"/>
</g>
</svg>
