<svg xmlns="http://www.w3.org/2000/svg" viewBox="0 0 125 40">
  <g fill="#FFFFFF">
    <path d="M27.798,29.11c1.918-2.572,3.067-5.751,3.067-9.206c0-8.523-6.909-15.433-15.433-15.433C6.909,4.471,0,11.38,0,19.903
      c0,8.523,6.909,15.433,15.433,15.433c3.442,0,6.61-1.141,9.177-3.046l-0.046,0.055l3.147,3.246l3.369-3.246L27.798,29.11z
      M15.433,31.386c-6.342,0-11.483-5.141-11.483-11.483s5.141-11.483,11.483-11.483s11.483,5.141,11.483,11.483
      S21.774,31.386,15.433,31.386z M15.433,15.386c-2.495,0-4.517,2.022-4.517,4.517s2.022,4.517,4.517,4.517s4.517-2.022,4.517-4.517
      S17.927,15.386,15.433,15.386z"/>
    <circle cx="15.433" cy="19.903" r="0.98"/>
    <path d="M29.527,32.372l-7.691-7.708c-0.227-0.301-0.586-0.496-0.991-0.496c-0.686,0-1.242,0.556-1.242,1.242
      c0,0.334,0.133,0.637,0.348,0.861l0.045,0.044l7.838,7.663L29.527,32.372z"/>
    <path d="M67.112,11.401c-4.749,0-8.599,3.85-8.599,8.599s3.85,8.599,8.599,8.599s8.599-3.85,8.599-8.599
      S71.861,11.401,67.112,11.401z M67.112,25.654c-3.122,0-5.654-2.531-5.654-5.654c0-3.122,2.531-5.654,5.654-5.654
      c3.122,0,5.654,2.531,5.654,5.654C72.767,23.122,70.235,25.654,67.112,25.654z"/>
    <path d="M48.108,11.401c-4.749,0-8.599,3.85-8.599,8.599s3.85,8.599,8.599,8.599c1.632,0,3.159-0.455,4.459-1.245v-3.88
      c-1.034,1.326-2.647,2.18-4.459,2.18c-3.122,0-5.654-2.531-5.654-5.654c0-3.122,2.531-5.654,5.654-5.654
      c3.122,0,5.654,2.531,5.654,5.654v6.476v9.048c0,0.813,0.659,1.472,1.472,1.472s1.472-0.659,1.472-1.472V20
      C56.707,15.251,52.858,11.401,48.108,11.401z"/>
    <path d="M86.075,28.599c4.749,0,8.599-3.85,8.599-8.599s-3.85-8.599-8.599-8.599c-1.632,0-3.159,0.455-4.459,1.245v3.88
      c1.034-1.326,2.647-2.18,4.459-2.18c3.122,0,5.654,2.531,5.654,5.654c0,3.122-2.531,5.654-5.654,5.654
      c-3.122,0-5.654-2.531-5.654-5.654v-6.476V4.476c0-0.813-0.659-1.472-1.472-1.472c-0.813,0-1.472,0.659-1.472,1.472V20
      C77.475,24.749,81.326,28.599,86.075,28.599z"/>
    <path d="M103.724,28.599c-4.813,0-7.106-4.306-7.106-6.515s0-9.211,0-9.211c0-0.813,0.659-1.472,1.473-1.472
      c0.813,0,1.472,0.659,1.472,1.472c0,0,0,7.877,0,8.878s0.264,3.904,4.265,3.904c3.334,0,4.056-2.195,4.056-3.32
      c0-1.126,0-9.461,0-9.461c0-0.813,0.659-1.472,1.473-1.472c0.813,0,1.472,0.659,1.472,1.472c0,0,0,7.585,0,9.378
      C110.83,24.043,109.163,28.599,103.724,28.599z"/>
    <path d="M123.535,28.599c0.809,0,1.465-0.656,1.465-1.465c0-0.809-0.656-1.465-1.465-1.465h-6.911l5.959-8.043
      c2.334-3.125,2.417-3.25,2.417-4.125c0-1-1-1.973-2.001-1.973c-1,0-8.703,0-8.703,0c-0.809,0-1.465,0.656-1.465,1.465
      c0,0.809,0.656,1.465,1.465,1.465h7.119c0,0-7.585,10.002-8.252,10.919c-0.667,0.916-0.292,3.222,1.5,3.222
      C116.455,28.599,123.535,28.599,123.535,28.599z"/>
  </g>
</svg>
