<?xml version="1.0" encoding="UTF-8" standalone="no"?>
<!DOCTYPE svg PUBLIC "-//W3C//DTD SVG 1.1//EN" "http://www.w3.org/Graphics/SVG/1.1/DTD/svg11.dtd">
<svg width="100%" height="100%" viewBox="0 0 262 130" version="1.1" xmlns="http://www.w3.org/2000/svg" xmlns:xlink="http://www.w3.org/1999/xlink" xml:space="preserve" xmlns:serif="http://www.serif.com/" style="fill-rule:evenodd;clip-rule:evenodd;stroke-linejoin:round;stroke-miterlimit:2;">
    <g transform="matrix(0.70836,0,0,0.70836,39.5,34.42)">
        <path d="M39.718,125.175L39.718,115.816L38.105,115.816L38.105,114.395L39.718,114.395L39.718,113.248C39.718,112.524 39.782,111.986 39.911,111.634C40.087,111.161 40.396,110.777 40.839,110.482C41.283,110.188 41.903,110.041 42.702,110.041C43.216,110.041 43.785,110.102 44.407,110.224L44.133,111.817C43.754,111.75 43.396,111.716 43.057,111.716C42.502,111.716 42.11,111.834 41.88,112.071C41.65,112.308 41.535,112.751 41.535,113.401L41.535,114.395L43.636,114.395L43.636,115.816L41.535,115.816L41.535,125.175L39.718,125.175Z" style="fill:rgb(253,255,252);fill-rule:nonzero;"/>
        <path d="M46.337,125.175L46.337,114.395L47.983,114.395L47.983,116.03C48.401,115.265 48.79,114.761 49.145,114.517C49.499,114.274 49.891,114.152 50.316,114.152C50.932,114.152 51.558,114.348 52.194,114.74L51.566,116.436C51.118,116.172 50.672,116.04 50.225,116.04C49.826,116.04 49.467,116.16 49.149,116.4C48.831,116.64 48.604,116.973 48.469,117.4C48.266,118.049 48.165,118.76 48.165,119.531L48.165,125.175L46.337,125.175Z" style="fill:rgb(253,255,252);fill-rule:nonzero;"/>
        <path id="b" d="M62.268,121.703L64.156,121.937C63.859,123.04 63.307,123.896 62.502,124.505C61.697,125.114 60.668,125.418 59.416,125.418C57.84,125.418 56.589,124.933 55.666,123.962C54.742,122.991 54.28,121.629 54.28,119.876C54.28,118.063 54.747,116.655 55.681,115.654C56.615,114.652 57.826,114.152 59.315,114.152C60.756,114.152 61.933,114.642 62.847,115.624C63.76,116.605 64.217,117.985 64.217,119.765C64.217,119.873 64.214,120.035 64.207,120.252L56.168,120.252C56.236,121.436 56.571,122.343 57.173,122.972C57.775,123.602 58.526,123.916 59.426,123.916C60.096,123.916 60.668,123.74 61.142,123.388C61.615,123.037 61.991,122.475 62.268,121.703ZM56.27,118.75L62.289,118.75C62.207,117.843 61.977,117.163 61.598,116.71C61.017,116.006 60.262,115.654 59.335,115.654C58.496,115.654 57.79,115.935 57.219,116.496C56.647,117.058 56.331,117.809 56.27,118.75Z" style="fill:rgb(253,255,252);fill-rule:nonzero;"/>
        <g id="b1" serif:id="b" transform="matrix(1,0,0,1,12.71,0)">
            <path d="M62.268,121.703L64.156,121.937C63.859,123.04 63.307,123.896 62.502,124.505C61.697,125.114 60.668,125.418 59.416,125.418C57.84,125.418 56.589,124.933 55.666,123.962C54.742,122.991 54.28,121.629 54.28,119.876C54.28,118.063 54.747,116.655 55.681,115.654C56.615,114.652 57.826,114.152 59.315,114.152C60.756,114.152 61.933,114.642 62.847,115.624C63.76,116.605 64.217,117.985 64.217,119.765C64.217,119.873 64.214,120.035 64.207,120.252L56.168,120.252C56.236,121.436 56.571,122.343 57.173,122.972C57.775,123.602 58.526,123.916 59.426,123.916C60.096,123.916 60.668,123.74 61.142,123.388C61.615,123.037 61.991,122.475 62.268,121.703ZM56.27,118.75L62.289,118.75C62.207,117.843 61.977,117.163 61.598,116.71C61.017,116.006 60.262,115.654 59.335,115.654C58.496,115.654 57.79,115.935 57.219,116.496C56.647,117.058 56.331,117.809 56.27,118.75Z" style="fill:rgb(253,255,252);fill-rule:nonzero;"/>
        </g>
        <rect x="88.23" y="110.3" width="1.83" height="14.88" style="fill:rgb(253,255,252);fill-rule:nonzero;"/>
        <path id="c" d="M93.725,119.772C93.725,117.776 94.279,116.297 95.389,115.336C96.316,114.538 97.446,114.139 98.779,114.139C100.261,114.139 101.473,114.624 102.413,115.595C103.354,116.566 103.824,117.908 103.824,119.62C103.824,121.007 103.616,122.098 103.2,122.893C102.784,123.688 102.178,124.306 101.383,124.746C100.588,125.186 99.72,125.405 98.779,125.405C97.27,125.405 96.051,124.922 95.12,123.954C94.19,122.986 93.725,121.592 93.725,119.772ZM95.602,119.772C95.602,121.152 95.903,122.186 96.506,122.873C97.108,123.56 97.866,123.903 98.779,123.903C99.686,123.903 100.441,123.558 101.043,122.868C101.645,122.178 101.946,121.125 101.946,119.711C101.946,118.378 101.643,117.368 101.038,116.681C100.432,115.995 99.679,115.651 98.779,115.651C97.866,115.651 97.108,115.993 96.506,116.676C95.903,117.36 95.602,118.392 95.602,119.772Z" style="fill:rgb(253,255,252);fill-rule:nonzero;"/>
        <path id="d" d="M106.417,121.932L108.224,121.648C108.325,122.372 108.608,122.927 109.071,123.313C109.535,123.698 110.183,123.891 111.015,123.891C111.854,123.891 112.477,123.72 112.883,123.379C113.289,123.037 113.492,122.636 113.492,122.176C113.492,121.763 113.312,121.438 112.954,121.201C112.703,121.039 112.081,120.833 111.086,120.582C109.746,120.244 108.817,119.951 108.3,119.704C107.782,119.457 107.39,119.116 107.122,118.679C106.855,118.243 106.721,117.76 106.721,117.233C106.721,116.752 106.831,116.307 107.051,115.898C107.271,115.489 107.571,115.149 107.95,114.878C108.234,114.668 108.621,114.49 109.112,114.345C109.602,114.199 110.128,114.127 110.69,114.127C111.536,114.127 112.279,114.249 112.918,114.492C113.558,114.736 114.03,115.066 114.334,115.482C114.639,115.898 114.848,116.454 114.963,117.151L113.177,117.395C113.096,116.84 112.861,116.407 112.471,116.096C112.082,115.785 111.533,115.629 110.822,115.629C109.983,115.629 109.384,115.768 109.025,116.045C108.667,116.323 108.488,116.647 108.488,117.02C108.488,117.256 108.562,117.47 108.711,117.659C108.86,117.855 109.093,118.018 109.411,118.146C109.594,118.214 110.132,118.37 111.025,118.613C112.318,118.958 113.219,119.241 113.73,119.461C114.241,119.681 114.642,120 114.933,120.42C115.224,120.839 115.369,121.36 115.369,121.983C115.369,122.592 115.192,123.165 114.836,123.703C114.481,124.241 113.969,124.658 113.299,124.952C112.629,125.246 111.871,125.393 111.025,125.393C109.624,125.393 108.557,125.102 107.823,124.521C107.089,123.939 106.62,123.076 106.417,121.932Z" style="fill:rgb(253,255,252);fill-rule:nonzero;"/>
        <g id="d1" serif:id="d" transform="matrix(1,0,0,1,11.9,0)">
            <path d="M106.417,121.932L108.224,121.648C108.325,122.372 108.608,122.927 109.071,123.313C109.535,123.698 110.183,123.891 111.015,123.891C111.854,123.891 112.477,123.72 112.883,123.379C113.289,123.037 113.492,122.636 113.492,122.176C113.492,121.763 113.312,121.438 112.954,121.201C112.703,121.039 112.081,120.833 111.086,120.582C109.746,120.244 108.817,119.951 108.3,119.704C107.782,119.457 107.39,119.116 107.122,118.679C106.855,118.243 106.721,117.76 106.721,117.233C106.721,116.752 106.831,116.307 107.051,115.898C107.271,115.489 107.571,115.149 107.95,114.878C108.234,114.668 108.621,114.49 109.112,114.345C109.602,114.199 110.128,114.127 110.69,114.127C111.536,114.127 112.279,114.249 112.918,114.492C113.558,114.736 114.03,115.066 114.334,115.482C114.639,115.898 114.848,116.454 114.963,117.151L113.177,117.395C113.096,116.84 112.861,116.407 112.471,116.096C112.082,115.785 111.533,115.629 110.822,115.629C109.983,115.629 109.384,115.768 109.025,116.045C108.667,116.323 108.488,116.647 108.488,117.02C108.488,117.256 108.562,117.47 108.711,117.659C108.86,117.855 109.093,118.018 109.411,118.146C109.594,118.214 110.132,118.37 111.025,118.613C112.318,118.958 113.219,119.241 113.73,119.461C114.241,119.681 114.642,120 114.933,120.42C115.224,120.839 115.369,121.36 115.369,121.983C115.369,122.592 115.192,123.165 114.836,123.703C114.481,124.241 113.969,124.658 113.299,124.952C112.629,125.246 111.871,125.393 111.025,125.393C109.624,125.393 108.557,125.102 107.823,124.521C107.089,123.939 106.62,123.076 106.417,121.932Z" style="fill:rgb(253,255,252);fill-rule:nonzero;"/>
        </g>
        <rect x="130.46" y="110.3" width="1.83" height="14.88" style="fill:rgb(253,255,252);fill-rule:nonzero;"/>
        <g id="b2" serif:id="b" transform="matrix(1,0,0,1,81.89,0)">
            <path d="M62.268,121.703L64.156,121.937C63.859,123.04 63.307,123.896 62.502,124.505C61.697,125.114 60.668,125.418 59.416,125.418C57.84,125.418 56.589,124.933 55.666,123.962C54.742,122.991 54.28,121.629 54.28,119.876C54.28,118.063 54.747,116.655 55.681,115.654C56.615,114.652 57.826,114.152 59.315,114.152C60.756,114.152 61.933,114.642 62.847,115.624C63.76,116.605 64.217,117.985 64.217,119.765C64.217,119.873 64.214,120.035 64.207,120.252L56.168,120.252C56.236,121.436 56.571,122.343 57.173,122.972C57.775,123.602 58.526,123.916 59.426,123.916C60.096,123.916 60.668,123.74 61.142,123.388C61.615,123.037 61.991,122.475 62.268,121.703ZM56.27,118.75L62.289,118.75C62.207,117.843 61.977,117.163 61.598,116.71C61.017,116.006 60.262,115.654 59.335,115.654C58.496,115.654 57.79,115.935 57.219,116.496C56.647,117.058 56.331,117.809 56.27,118.75Z" style="fill:rgb(253,255,252);fill-rule:nonzero;"/>
        </g>
        <g id="d2" serif:id="d" transform="matrix(1,0,0,1,42.25,0)">
            <path d="M106.417,121.932L108.224,121.648C108.325,122.372 108.608,122.927 109.071,123.313C109.535,123.698 110.183,123.891 111.015,123.891C111.854,123.891 112.477,123.72 112.883,123.379C113.289,123.037 113.492,122.636 113.492,122.176C113.492,121.763 113.312,121.438 112.954,121.201C112.703,121.039 112.081,120.833 111.086,120.582C109.746,120.244 108.817,119.951 108.3,119.704C107.782,119.457 107.39,119.116 107.122,118.679C106.855,118.243 106.721,117.76 106.721,117.233C106.721,116.752 106.831,116.307 107.051,115.898C107.271,115.489 107.571,115.149 107.95,114.878C108.234,114.668 108.621,114.49 109.112,114.345C109.602,114.199 110.128,114.127 110.69,114.127C111.536,114.127 112.279,114.249 112.918,114.492C113.558,114.736 114.03,115.066 114.334,115.482C114.639,115.898 114.848,116.454 114.963,117.151L113.177,117.395C113.096,116.84 112.861,116.407 112.471,116.096C112.082,115.785 111.533,115.629 110.822,115.629C109.983,115.629 109.384,115.768 109.025,116.045C108.667,116.323 108.488,116.647 108.488,117.02C108.488,117.256 108.562,117.47 108.711,117.659C108.86,117.855 109.093,118.018 109.411,118.146C109.594,118.214 110.132,118.37 111.025,118.613C112.318,118.958 113.219,119.241 113.73,119.461C114.241,119.681 114.642,120 114.933,120.42C115.224,120.839 115.369,121.36 115.369,121.983C115.369,122.592 115.192,123.165 114.836,123.703C114.481,124.241 113.969,124.658 113.299,124.952C112.629,125.246 111.871,125.393 111.025,125.393C109.624,125.393 108.557,125.102 107.823,124.521C107.089,123.939 106.62,123.076 106.417,121.932Z" style="fill:rgb(253,255,252);fill-rule:nonzero;"/>
        </g>
        <g id="d3" serif:id="d" transform="matrix(1,0,0,1,54.13,0)">
            <path d="M106.417,121.932L108.224,121.648C108.325,122.372 108.608,122.927 109.071,123.313C109.535,123.698 110.183,123.891 111.015,123.891C111.854,123.891 112.477,123.72 112.883,123.379C113.289,123.037 113.492,122.636 113.492,122.176C113.492,121.763 113.312,121.438 112.954,121.201C112.703,121.039 112.081,120.833 111.086,120.582C109.746,120.244 108.817,119.951 108.3,119.704C107.782,119.457 107.39,119.116 107.122,118.679C106.855,118.243 106.721,117.76 106.721,117.233C106.721,116.752 106.831,116.307 107.051,115.898C107.271,115.489 107.571,115.149 107.95,114.878C108.234,114.668 108.621,114.49 109.112,114.345C109.602,114.199 110.128,114.127 110.69,114.127C111.536,114.127 112.279,114.249 112.918,114.492C113.558,114.736 114.03,115.066 114.334,115.482C114.639,115.898 114.848,116.454 114.963,117.151L113.177,117.395C113.096,116.84 112.861,116.407 112.471,116.096C112.082,115.785 111.533,115.629 110.822,115.629C109.983,115.629 109.384,115.768 109.025,116.045C108.667,116.323 108.488,116.647 108.488,117.02C108.488,117.256 108.562,117.47 108.711,117.659C108.86,117.855 109.093,118.018 109.411,118.146C109.594,118.214 110.132,118.37 111.025,118.613C112.318,118.958 113.219,119.241 113.73,119.461C114.241,119.681 114.642,120 114.933,120.42C115.224,120.839 115.369,121.36 115.369,121.983C115.369,122.592 115.192,123.165 114.836,123.703C114.481,124.241 113.969,124.658 113.299,124.952C112.629,125.246 111.871,125.393 111.025,125.393C109.624,125.393 108.557,125.102 107.823,124.521C107.089,123.939 106.62,123.076 106.417,121.932Z" style="fill:rgb(253,255,252);fill-rule:nonzero;"/>
        </g>
        <path d="M187.583,123.853C186.907,124.428 186.255,124.834 185.629,125.071C185.004,125.308 184.332,125.426 183.615,125.426C182.43,125.426 181.52,125.137 180.884,124.559C180.248,123.98 179.93,123.241 179.93,122.341C179.93,121.813 180.05,121.331 180.29,120.894C180.531,120.458 180.845,120.108 181.234,119.844C181.624,119.58 182.062,119.38 182.549,119.245C182.908,119.15 183.449,119.059 184.173,118.971C185.648,118.795 186.734,118.585 187.431,118.342C187.438,118.091 187.441,117.932 187.441,117.865C187.441,117.12 187.269,116.596 186.924,116.291C186.457,115.878 185.763,115.672 184.843,115.672C183.983,115.672 183.349,115.823 182.94,116.124C182.53,116.425 182.227,116.958 182.031,117.722L180.245,117.479C180.407,116.714 180.675,116.097 181.047,115.626C181.419,115.156 181.957,114.794 182.661,114.54C183.364,114.287 184.18,114.16 185.107,114.16C186.027,114.16 186.775,114.268 187.35,114.485C187.925,114.701 188.348,114.973 188.619,115.302C188.889,115.63 189.079,116.044 189.187,116.545C189.248,116.856 189.278,117.418 189.278,118.23L189.278,120.666C189.278,122.364 189.317,123.439 189.395,123.889C189.473,124.339 189.627,124.77 189.857,125.183L187.949,125.183C187.759,124.804 187.638,124.361 187.583,123.853ZM187.431,119.773C186.768,120.043 185.773,120.274 184.447,120.463C183.696,120.571 183.165,120.693 182.853,120.828C182.542,120.964 182.302,121.162 182.133,121.422C181.964,121.683 181.879,121.972 181.879,122.29C181.879,122.777 182.063,123.183 182.432,123.508C182.801,123.833 183.341,123.995 184.051,123.995C184.755,123.995 185.381,123.841 185.929,123.533C186.477,123.226 186.88,122.804 187.137,122.27C187.333,121.857 187.431,121.248 187.431,120.443L187.431,119.773Z" style="fill:rgb(253,255,252);fill-rule:nonzero;"/>
        <path d="M200.494,125.163L200.494,123.579C199.655,124.797 198.515,125.406 197.073,125.406C196.437,125.406 195.843,125.285 195.292,125.041C194.74,124.797 194.331,124.491 194.064,124.122C193.796,123.754 193.609,123.302 193.5,122.767C193.426,122.409 193.389,121.84 193.389,121.062L193.389,114.383L195.216,114.383L195.216,120.362C195.216,121.316 195.253,121.959 195.327,122.29C195.442,122.771 195.686,123.148 196.058,123.422C196.43,123.696 196.891,123.833 197.439,123.833C197.987,123.833 198.501,123.693 198.982,123.412C199.462,123.131 199.802,122.749 200.002,122.265C200.201,121.781 200.301,121.079 200.301,120.159L200.301,114.383L202.128,114.383L202.128,125.163L200.494,125.163Z" style="fill:rgb(253,255,252);fill-rule:nonzero;"/>
        <path d="M213.289,125.185L213.289,123.825C212.605,124.894 211.601,125.428 210.274,125.428C209.415,125.428 208.625,125.192 207.904,124.718C207.184,124.244 206.625,123.583 206.229,122.734C205.834,121.884 205.636,120.908 205.636,119.805C205.636,118.729 205.815,117.753 206.174,116.877C206.532,116.001 207.07,115.329 207.788,114.862C208.505,114.395 209.307,114.162 210.193,114.162C210.843,114.162 211.421,114.299 211.929,114.573C212.436,114.847 212.849,115.204 213.167,115.644L213.167,110.305L214.984,110.305L214.984,125.185L213.289,125.185ZM207.513,119.805C207.513,121.186 207.804,122.218 208.386,122.901C208.968,123.584 209.655,123.926 210.447,123.926C211.245,123.926 211.924,123.6 212.482,122.947C213.04,122.294 213.319,121.297 213.319,119.957C213.319,118.482 213.035,117.4 212.467,116.709C211.898,116.019 211.198,115.674 210.366,115.674C209.554,115.674 208.875,116.006 208.331,116.669C207.786,117.332 207.513,118.377 207.513,119.805Z" style="fill:rgb(253,255,252);fill-rule:nonzero;"/>
        <path d="M219.353,112.384L219.353,110.283L221.18,110.283L221.18,112.384L219.353,112.384ZM219.353,125.163L219.353,114.383L221.18,114.383L221.18,125.163L219.353,125.163Z" style="fill:rgb(253,255,252);fill-rule:nonzero;"/>
        <g id="c1" serif:id="c" transform="matrix(1,0,0,1,131.19,0)">
            <path d="M93.725,119.772C93.725,117.776 94.279,116.297 95.389,115.336C96.316,114.538 97.446,114.139 98.779,114.139C100.261,114.139 101.473,114.624 102.413,115.595C103.354,116.566 103.824,117.908 103.824,119.62C103.824,121.007 103.616,122.098 103.2,122.893C102.784,123.688 102.178,124.306 101.383,124.746C100.588,125.186 99.72,125.405 98.779,125.405C97.27,125.405 96.051,124.922 95.12,123.954C94.19,122.986 93.725,121.592 93.725,119.772ZM95.602,119.772C95.602,121.152 95.903,122.186 96.506,122.873C97.108,123.56 97.866,123.903 98.779,123.903C99.686,123.903 100.441,123.558 101.043,122.868C101.645,122.178 101.946,121.125 101.946,119.711C101.946,118.378 101.643,117.368 101.038,116.681C100.432,115.995 99.679,115.651 98.779,115.651C97.866,115.651 97.108,115.993 96.506,116.676C95.903,117.36 95.602,118.392 95.602,119.772Z" style="fill:rgb(253,255,252);fill-rule:nonzero;"/>
        </g>
        <path id="e" d="M252.639,121.212L254.436,121.446C254.24,122.684 253.737,123.654 252.929,124.354C252.12,125.054 251.127,125.404 249.95,125.404C248.474,125.404 247.289,124.922 246.392,123.958C245.495,122.994 245.047,121.612 245.047,119.812C245.047,118.648 245.24,117.629 245.626,116.756C246.011,115.884 246.598,115.229 247.387,114.792C248.175,114.356 249.033,114.138 249.96,114.138C251.13,114.138 252.088,114.434 252.832,115.026C253.577,115.618 254.054,116.459 254.263,117.548L252.487,117.822C252.318,117.098 252.019,116.553 251.589,116.188C251.159,115.823 250.64,115.64 250.031,115.64C249.111,115.64 248.363,115.97 247.788,116.63C247.212,117.289 246.925,118.333 246.925,119.761C246.925,121.209 247.202,122.261 247.757,122.918C248.312,123.574 249.036,123.902 249.929,123.902C250.647,123.902 251.245,123.682 251.726,123.242C252.206,122.803 252.511,122.126 252.639,121.212Z" style="fill:rgb(253,255,252);fill-rule:nonzero;"/>
        <g id="c2" serif:id="c" transform="matrix(1,0,0,1,163.09,0)">
            <path d="M93.725,119.772C93.725,117.776 94.279,116.297 95.389,115.336C96.316,114.538 97.446,114.139 98.779,114.139C100.261,114.139 101.473,114.624 102.413,115.595C103.354,116.566 103.824,117.908 103.824,119.62C103.824,121.007 103.616,122.098 103.2,122.893C102.784,123.688 102.178,124.306 101.383,124.746C100.588,125.186 99.72,125.405 98.779,125.405C97.27,125.405 96.051,124.922 95.12,123.954C94.19,122.986 93.725,121.592 93.725,119.772ZM95.602,119.772C95.602,121.152 95.903,122.186 96.506,122.873C97.108,123.56 97.866,123.903 98.779,123.903C99.686,123.903 100.441,123.558 101.043,122.868C101.645,122.178 101.946,121.125 101.946,119.711C101.946,118.378 101.643,117.368 101.038,116.681C100.432,115.995 99.679,115.651 98.779,115.651C97.866,115.651 97.108,115.993 96.506,116.676C95.903,117.36 95.602,118.392 95.602,119.772Z" style="fill:rgb(253,255,252);fill-rule:nonzero;"/>
        </g>
        <path d="M277.032,125.155L277.032,123.795C276.348,124.864 275.343,125.398 274.017,125.398C273.158,125.398 272.368,125.162 271.647,124.688C270.926,124.214 270.368,123.553 269.972,122.704C269.576,121.854 269.378,120.878 269.378,119.775C269.378,118.699 269.558,117.723 269.916,116.847C270.275,115.971 270.813,115.299 271.53,114.832C272.248,114.365 273.049,114.132 273.936,114.132C274.585,114.132 275.164,114.269 275.672,114.543C276.179,114.817 276.592,115.174 276.91,115.614L276.91,110.275L278.727,110.275L278.727,125.155L277.032,125.155ZM271.256,119.775C271.256,121.156 271.547,122.188 272.129,122.871C272.711,123.554 273.398,123.896 274.19,123.896C274.988,123.896 275.666,123.57 276.225,122.917C276.783,122.264 277.062,121.267 277.062,119.927C277.062,118.452 276.778,117.37 276.209,116.679C275.641,115.989 274.941,115.644 274.108,115.644C273.296,115.644 272.618,115.976 272.073,116.639C271.529,117.302 271.256,118.347 271.256,119.775Z" style="fill:rgb(253,255,252);fill-rule:nonzero;"/>
        <g id="b3" serif:id="b" transform="matrix(1,0,0,1,227.89,0)">
            <path d="M62.268,121.703L64.156,121.937C63.859,123.04 63.307,123.896 62.502,124.505C61.697,125.114 60.668,125.418 59.416,125.418C57.84,125.418 56.589,124.933 55.666,123.962C54.742,122.991 54.28,121.629 54.28,119.876C54.28,118.063 54.747,116.655 55.681,115.654C56.615,114.652 57.826,114.152 59.315,114.152C60.756,114.152 61.933,114.642 62.847,115.624C63.76,116.605 64.217,117.985 64.217,119.765C64.217,119.873 64.214,120.035 64.207,120.252L56.168,120.252C56.236,121.436 56.571,122.343 57.173,122.972C57.775,123.602 58.526,123.916 59.426,123.916C60.096,123.916 60.668,123.74 61.142,123.388C61.615,123.037 61.991,122.475 62.268,121.703ZM56.27,118.75L62.289,118.75C62.207,117.843 61.977,117.163 61.598,116.71C61.017,116.006 60.262,115.654 59.335,115.654C58.496,115.654 57.79,115.935 57.219,116.496C56.647,117.058 56.331,117.809 56.27,118.75Z" style="fill:rgb(253,255,252);fill-rule:nonzero;"/>
        </g>
        <g id="e1" serif:id="e" transform="matrix(1,0,0,1,50.01,0)">
            <path d="M252.639,121.212L254.436,121.446C254.24,122.684 253.737,123.654 252.929,124.354C252.12,125.054 251.127,125.404 249.95,125.404C248.474,125.404 247.289,124.922 246.392,123.958C245.495,122.994 245.047,121.612 245.047,119.812C245.047,118.648 245.24,117.629 245.626,116.756C246.011,115.884 246.598,115.229 247.387,114.792C248.175,114.356 249.033,114.138 249.96,114.138C251.13,114.138 252.088,114.434 252.832,115.026C253.577,115.618 254.054,116.459 254.263,117.548L252.487,117.822C252.318,117.098 252.019,116.553 251.589,116.188C251.159,115.823 250.64,115.64 250.031,115.64C249.111,115.64 248.363,115.97 247.788,116.63C247.212,117.289 246.925,118.333 246.925,119.761C246.925,121.209 247.202,122.261 247.757,122.918C248.312,123.574 249.036,123.902 249.929,123.902C250.647,123.902 251.245,123.682 251.726,123.242C252.206,122.803 252.511,122.126 252.639,121.212Z" style="fill:rgb(253,255,252);fill-rule:nonzero;"/>
        </g>
    </g>
    <g>
        <path d="M66.302,50.396L55.918,50.376L59.65,33L66.302,33.013L66.302,31.399C66.302,26.589 67.081,22.485 68.591,19.067C70.134,15.575 72.277,12.731 75.057,10.539C77.934,8.271 81.34,6.593 85.294,5.554C89.332,4.494 93.725,3.981 98.607,3.981L103.629,23.425L97.539,23.292C93.673,23.208 90.775,24.109 88.905,25.815C87.087,27.473 86.207,30.104 86.207,33.21L97.668,33L97.668,50.376L86.207,50.376L86.207,99.953L66.302,102.202L66.302,50.396" style="fill:rgb(253,255,252);fill-rule:nonzero;"/>
        <path d="M129.113,6.535L129.175,100.009L109.005,102.541L109.005,8.792L129.113,6.535Z" style="fill:rgb(253,255,252);fill-rule:nonzero;"/>
        <path d="M157.812,55.625C143.91,55.539 134.531,65.348 134.531,79.531C134.531,93.715 144.635,103.523 157.812,103.437C170.989,103.351 179.156,93.324 179.156,78.375C179.156,63.426 171.714,55.711 157.812,55.625L157.812,55.625ZM163.343,69.25C168.801,69.25 173.093,72.848 173.093,78.156C173.093,83.464 169.083,87.062 163.343,87.062C157.603,87.062 153.593,83.435 153.593,78.156C153.593,72.878 157.885,69.25 163.343,69.25Z" style="fill:rgb(253,255,252);fill-rule:nonzero;"/>
        <path d="M173.75,57.732C173.75,54.602 172.698,52.108 170.593,50.249C168.589,48.391 165.401,47.461 160.822,47.461C157.363,47.461 153.847,48.023 151.086,48.778C148.325,49.439 146.076,50.194 144.337,51.043L147.352,32.861C148.629,32.338 150.864,31.749 154.056,31.095C157.248,30.441 161.261,30.114 166.233,30.114C173.556,30.114 180.651,32.272 185.365,36.515C190.934,41.528 192.181,45.07 192.219,54.927C192.278,70.004 190.919,100.71 190.919,100.71L173.438,102.387" style="fill:rgb(253,255,252);fill-rule:nonzero;"/>
        <path d="M234,30C214.006,30 198.25,44.918 198.25,66.688C198.25,88.457 212.974,103.406 234,103.406C243.725,103.406 252.086,100.232 258.281,94.656L247.531,79.406C244.589,82.566 240.415,84.406 235.469,84.406C225.66,84.406 218.219,76.257 218.219,66.688C218.219,56.19 226.142,49 235.469,49C240.067,49 244.168,50.727 247.156,53.75L257.719,38.625C251.441,33.135 243.177,30 234,30L234,30Z" style="fill:rgb(253,255,252);fill-rule:nonzero;"/>
    </g>
    <g>
        <clipPath id="_clip1">
            <path d="M2,1L15,1L15,33L28,33L28,17L41,17L41,65L54,65L54,129L2,129L2,1Z"/>
        </clipPath>
        <g clip-path="url(#_clip1)">
            <g id="f">
                <path d="M2.75,34.644L2.75,46.3L10.994,46.3L10.994,34.644L2.75,34.644ZM2.75,50.644L2.75,62.3L10.994,62.3L10.994,50.644L2.75,50.644ZM2.75,66.644L2.75,78.3L10.994,78.3L10.994,66.644L2.75,66.644Z" style="fill:rgb(255,255,1);fill-rule:nonzero;"/>
                <path d="M2.75,82.644L2.75,94.3L10.994,94.3L10.994,82.644L2.75,82.644ZM2.75,98.644L2.75,110.3L10.994,110.3L10.994,98.644L2.75,98.644ZM2.75,114.644L2.75,126.3L10.994,126.3L10.994,114.644L2.75,114.644Z" style="fill:rgb(46,160,42);fill-rule:nonzero;"/>
                <path d="M2.75,2.862L2.75,14.519L10.994,14.519L10.994,2.862L2.75,2.862ZM2.75,18.644L2.75,30.3L10.994,30.3L10.994,18.644L2.75,18.644Z" style="fill:rgb(255,0,0);fill-rule:nonzero;"/>
            </g>
            <g id="f1" serif:id="f" transform="matrix(1,0,0,1,13,0)">
                <path d="M2.75,34.644L2.75,46.3L10.994,46.3L10.994,34.644L2.75,34.644ZM2.75,50.644L2.75,62.3L10.994,62.3L10.994,50.644L2.75,50.644ZM2.75,66.644L2.75,78.3L10.994,78.3L10.994,66.644L2.75,66.644Z" style="fill:rgb(255,255,1);fill-rule:nonzero;"/>
                <path d="M2.75,82.644L2.75,94.3L10.994,94.3L10.994,82.644L2.75,82.644ZM2.75,98.644L2.75,110.3L10.994,110.3L10.994,98.644L2.75,98.644ZM2.75,114.644L2.75,126.3L10.994,126.3L10.994,114.644L2.75,114.644Z" style="fill:rgb(46,160,42);fill-rule:nonzero;"/>
                <path d="M2.75,2.862L2.75,14.519L10.994,14.519L10.994,2.862L2.75,2.862ZM2.75,18.644L2.75,30.3L10.994,30.3L10.994,18.644L2.75,18.644Z" style="fill:rgb(255,0,0);fill-rule:nonzero;"/>
            </g>
            <g id="f2" serif:id="f" transform="matrix(1,0,0,1,26,0)">
                <path d="M2.75,34.644L2.75,46.3L10.994,46.3L10.994,34.644L2.75,34.644ZM2.75,50.644L2.75,62.3L10.994,62.3L10.994,50.644L2.75,50.644ZM2.75,66.644L2.75,78.3L10.994,78.3L10.994,66.644L2.75,66.644Z" style="fill:rgb(255,255,1);fill-rule:nonzero;"/>
                <path d="M2.75,82.644L2.75,94.3L10.994,94.3L10.994,82.644L2.75,82.644ZM2.75,98.644L2.75,110.3L10.994,110.3L10.994,98.644L2.75,98.644ZM2.75,114.644L2.75,126.3L10.994,126.3L10.994,114.644L2.75,114.644Z" style="fill:rgb(46,160,42);fill-rule:nonzero;"/>
                <path d="M2.75,2.862L2.75,14.519L10.994,14.519L10.994,2.862L2.75,2.862ZM2.75,18.644L2.75,30.3L10.994,30.3L10.994,18.644L2.75,18.644Z" style="fill:rgb(255,0,0);fill-rule:nonzero;"/>
            </g>
            <g id="f3" serif:id="f" transform="matrix(1,0,0,1,39,0)">
                <path d="M2.75,34.644L2.75,46.3L10.994,46.3L10.994,34.644L2.75,34.644ZM2.75,50.644L2.75,62.3L10.994,62.3L10.994,50.644L2.75,50.644ZM2.75,66.644L2.75,78.3L10.994,78.3L10.994,66.644L2.75,66.644Z" style="fill:rgb(255,255,1);fill-rule:nonzero;"/>
                <path d="M2.75,82.644L2.75,94.3L10.994,94.3L10.994,82.644L2.75,82.644ZM2.75,98.644L2.75,110.3L10.994,110.3L10.994,98.644L2.75,98.644ZM2.75,114.644L2.75,126.3L10.994,126.3L10.994,114.644L2.75,114.644Z" style="fill:rgb(46,160,42);fill-rule:nonzero;"/>
                <path d="M2.75,2.862L2.75,14.519L10.994,14.519L10.994,2.862L2.75,2.862ZM2.75,18.644L2.75,30.3L10.994,30.3L10.994,18.644L2.75,18.644Z" style="fill:rgb(255,0,0);fill-rule:nonzero;"/>
            </g>
        </g>
    </g>
</svg>
