<?xml version="1.0" encoding="UTF-8" standalone="no"?>
<!DOCTYPE svg PUBLIC "-//W3C//DTD SVG 1.1//EN" "http://www.w3.org/Graphics/SVG/1.1/DTD/svg11.dtd">
<svg width="100%" height="100%" viewBox="0 0 2500 1667" version="1.1" xmlns="http://www.w3.org/2000/svg" xmlns:xlink="http://www.w3.org/1999/xlink" xml:space="preserve" xmlns:serif="http://www.serif.com/" style="fill-rule:evenodd;clip-rule:evenodd;stroke-linejoin:round;stroke-miterlimit:2;">
    <g transform="matrix(4.911591,0,0,4.911591,1.522593,2.11002)">
        <path d="M58.69,338.485C57.04,338.252 52.92,337.218 49.533,336.187C26.743,329.251 9.703,312.146 1.879,288.349L-0.31,281.69L-0.31,56.69L1.879,50.033C9.752,26.088 26.087,9.753 50.033,1.88L56.69,-0.309L451.69,-0.309L458.347,1.881C467.689,4.951 475.689,9.191 482.729,14.801C493.612,23.472 501.719,35.488 506.501,50.034L508.69,56.691L508.69,281.691L506.501,288.349C498.711,312.041 482.938,327.978 458.871,336.471L452.69,338.652L257.19,338.78C149.665,338.851 60.34,338.718 58.69,338.485ZM455.445,306.502C464.334,302.305 472.304,294.335 476.501,285.446L479.691,278.691L479.691,59.691L476.501,52.937C472.304,44.047 464.334,36.077 455.445,31.88L448.69,28.691L59.69,28.691L52.936,31.881C44.046,36.078 36.076,44.048 31.88,52.937L28.69,59.691L28.69,278.691L31.88,285.446C37.405,297.146 49.436,306.929 61.19,309.277C63.115,309.662 151.09,309.912 256.69,309.834L448.69,309.691L455.445,306.502ZM81.204,282.48C71.927,280.65 67.062,268.989 72.144,260.765C76.078,254.4 77.38,254.19 112.842,254.194C142.647,254.198 144.896,254.323 147.887,256.146C157.18,261.813 157.419,274.775 148.334,280.424C144.771,282.641 144.024,282.694 114.191,282.83C97.416,282.907 82.571,282.75 81.204,282.48ZM211.191,283.317L211.191,254.32L241.941,254.005C269.71,253.721 272.951,253.514 275.371,251.871C280.969,248.071 281.656,245.867 281.967,230.691C282.25,216.937 282.224,216.739 280.473,219.471C279.493,221.001 276.765,223.186 274.411,224.325C270.42,226.258 268.797,226.37 250.411,225.98C231.469,225.578 230.418,225.449 223.772,222.702C214.507,218.872 205.395,210.061 201.329,200.998C189.668,175.008 205.742,145.778 234.191,141.242C241.391,140.094 264.495,139.85 270.597,140.857C273.263,141.297 275.724,142.723 278.347,145.347L282.191,149.19L282.191,140.19L311.264,140.19L310.978,200.94L310.691,261.69L308.031,266.69C304.641,273.06 300.017,277.478 293.691,280.39C288.788,282.645 287.935,282.696 249.941,283.004L211.191,283.317ZM275.475,194.926C279.61,192.213 281.575,188.472 281.573,183.322C281.57,177.887 279.264,173.832 274.793,171.402C270.823,169.245 243.92,168.378 237.189,170.191C226.713,173.011 222.962,185.929 230.549,193.057C234.332,196.61 237.627,197.113 255.739,196.895C270.112,196.722 273.208,196.414 275.475,194.926ZM353.191,283.336L353.191,254.298L383.441,253.994C410.991,253.717 413.969,253.522 416.806,251.804C422.668,248.256 423.654,245.237 424.029,229.69L424.367,215.69L422.009,219.19C417.517,225.858 415.307,226.357 392.191,225.923C372.599,225.556 371.435,225.423 365.915,222.908C354.137,217.543 346.539,209.935 341.995,198.954C340.275,194.799 339.803,191.584 339.753,183.69C339.668,170.001 342.198,163.475 351.212,154.129C362.357,142.572 372.727,139.646 400.01,140.359C416.187,140.782 418.235,141.446 422.13,147.527L424.157,150.69L424.174,145.413L424.191,140.135L438.441,140.413L452.691,140.69L452.691,260.69L449.831,266.19C445.994,273.568 443.776,275.82 436.691,279.54L430.691,282.69L353.191,283.336ZM416.998,195.19C425.458,189.69 425.352,176.75 416.805,171.576C414.06,169.913 411.559,169.69 395.691,169.69C378.445,169.69 377.554,169.788 374.426,172.019C369.823,175.302 367.859,179.556 368.466,184.932C369.04,190.031 372.868,194.712 377.653,196.167C379.324,196.675 388.341,197.001 397.691,196.891C410.849,196.735 415.212,196.351 416.998,195.191L416.998,195.19ZM90.19,225.241C73.238,222.137 59.101,207.125 56.242,189.191C54.863,180.549 54.876,100.721 56.256,92.211C59.349,73.148 73.681,59.161 93.253,56.106C97.869,55.386 107.138,55.136 117.69,55.449C133.219,55.909 135.339,56.196 142.19,58.773C148.56,61.169 150.744,62.667 156.69,68.715C162.067,74.185 164.27,77.327 166.19,82.265L168.69,88.691L168.69,193.691L166.237,199.191C161.117,210.669 154.217,217.554 142.466,222.911C136.888,225.455 135.969,225.554 115.69,225.805C104.14,225.948 92.665,225.694 90.19,225.24L90.19,225.241ZM130.247,196.191C132.203,195.648 135.127,193.821 136.747,192.133L139.69,189.061L139.968,142.131C140.276,90.314 140.42,91.631 133.955,87.02C130.827,84.789 129.935,84.691 112.69,84.691C92.683,84.691 90.376,85.3 86.575,91.577C84.817,94.481 84.67,97.647 84.391,138.404C84.184,168.768 84.439,183.404 85.228,186.334C86.456,190.895 90.925,195.803 94.476,196.49C99.037,197.373 126.828,197.141 130.246,196.192L130.247,196.191Z" style="fill-rule:nonzero;"/>
    </g>
</svg>
